<svg width="1080" height="1080" viewBox="0 0 1080 1080" fill="none" xmlns="http://www.w3.org/2000/svg">
<mask id="mask0_179_32" style="mask-type:alpha" maskUnits="userSpaceOnUse" x="0" y="0" width="1080" height="1080">
<circle cx="540" cy="540" r="540" fill="#AE9E9E"/>
</mask>
<g mask="url(#mask0_179_32)">
<g filter="url(#filter0_d_179_32)">
<rect x="409.733" y="304.99" width="380" height="380" rx="36" transform="rotate(16 409.733 304.99)" fill="url(#paint0_linear_179_32)"/>
</g>
<g filter="url(#filter1_ig_179_32)">
<path d="M731.803 394.783C751.184 400.34 760.874 403.119 767.195 409.013C772.755 414.198 776.531 421.01 777.982 428.473C779.631 436.956 776.852 446.647 771.295 466.028L692.793 739.796C687.236 759.176 684.457 768.867 678.563 775.188C673.378 780.748 666.566 784.524 659.104 785.974C650.62 787.623 640.929 784.845 621.548 779.287L347.78 700.786C328.4 695.228 318.709 692.45 312.388 686.555C306.828 681.37 303.052 674.558 301.602 667.096C299.953 658.612 302.731 648.921 308.289 629.541L386.79 355.773C392.348 336.392 395.126 326.702 401.021 320.381C406.206 314.821 413.018 311.045 420.48 309.594C428.964 307.945 438.655 310.724 458.035 316.281L731.803 394.783ZM362.431 606.158C353.817 603.688 349.511 602.454 345.74 603.187C342.423 603.831 339.396 605.509 337.091 607.981C334.472 610.79 333.236 615.096 330.767 623.71L324.206 646.589C321.736 655.202 320.502 659.509 321.235 663.279C321.879 666.596 323.558 669.624 326.029 671.928C328.838 674.548 333.145 675.783 341.758 678.253L364.637 684.813C373.25 687.283 377.557 688.518 381.328 687.785C384.644 687.14 387.672 685.462 389.976 682.991C392.596 680.181 393.831 675.875 396.301 667.261L402.861 644.383C405.331 635.769 406.566 631.462 405.833 627.692C405.188 624.375 403.51 621.348 401.039 619.043C398.23 616.424 393.923 615.188 385.31 612.718L362.431 606.158ZM453.751 632.344C445.137 629.874 440.83 628.639 437.06 629.372C433.743 630.017 430.716 631.695 428.411 634.166C425.792 636.975 424.556 641.282 422.086 649.895L415.526 672.774C413.056 681.388 411.822 685.694 412.555 689.465C413.199 692.782 414.877 695.809 417.349 698.114C420.158 700.733 424.464 701.968 433.078 704.438L455.957 710.999C464.57 713.469 468.877 714.703 472.647 713.97C475.964 713.326 478.992 711.647 481.296 709.176C483.916 706.367 485.151 702.06 487.621 693.447L494.181 670.568C496.651 661.955 497.886 657.648 497.153 653.877C496.508 650.561 494.83 647.533 492.359 645.229C489.549 642.609 485.243 641.374 476.629 638.904L453.751 632.344ZM545.07 658.529C536.457 656.059 532.15 654.825 528.38 655.558C525.063 656.202 522.035 657.881 519.731 660.352C517.111 663.161 515.876 667.468 513.406 676.081L506.846 698.96C504.376 707.573 503.141 711.88 503.874 715.65C504.519 718.967 506.197 721.995 508.668 724.299C511.478 726.919 515.784 728.154 524.398 730.624L547.276 737.184C555.89 739.654 560.197 740.889 563.967 740.156C567.284 739.511 570.312 737.833 572.616 735.362C575.236 732.552 576.471 728.246 578.941 719.633L585.501 696.754C587.971 688.14 589.205 683.834 588.473 680.063C587.828 676.746 586.15 673.719 583.679 671.414C580.869 668.795 576.563 667.559 567.949 665.09L545.07 658.529ZM636.39 684.715C627.777 682.245 623.47 681.01 619.7 681.743C616.383 682.388 613.355 684.066 611.051 686.537C608.431 689.346 607.196 693.653 604.726 702.266L598.166 725.145C595.696 733.759 594.461 738.065 595.194 741.836C595.839 745.153 597.517 748.18 599.988 750.485C602.798 753.104 607.104 754.34 615.718 756.809L638.596 763.37C647.21 765.84 651.516 767.074 655.287 766.341C658.604 765.697 661.631 764.018 663.936 761.547C666.555 758.738 667.791 754.431 670.26 745.818L676.821 722.939C679.291 714.326 680.525 710.019 679.792 706.249C679.148 702.932 677.47 699.904 674.998 697.6C672.189 694.98 667.883 693.745 659.269 691.275L636.39 684.715ZM388.616 514.838C380.003 512.368 375.696 511.134 371.926 511.867C368.609 512.511 365.581 514.19 363.277 516.661C360.657 519.47 359.422 523.777 356.952 532.39L350.392 555.269C347.922 563.882 346.687 568.189 347.42 571.96C348.065 575.276 349.743 578.304 352.214 580.608C355.024 583.228 359.33 584.463 367.943 586.933L390.822 593.493C399.436 595.963 403.742 597.198 407.513 596.465C410.83 595.82 413.857 594.142 416.162 591.671C418.781 588.862 420.017 584.555 422.486 575.942L429.047 553.063C431.517 544.449 432.751 540.143 432.018 536.372C431.374 533.055 429.696 530.028 427.224 527.723C424.415 525.104 420.109 523.868 411.495 521.399L388.616 514.838ZM479.936 541.024C471.323 538.554 467.016 537.319 463.245 538.052C459.929 538.697 456.901 540.375 454.597 542.846C451.977 545.656 450.742 549.962 448.272 558.576L441.712 581.454C439.242 590.068 438.007 594.374 438.74 598.145C439.385 601.462 441.063 604.489 443.534 606.794C446.343 609.413 450.65 610.649 459.263 613.118L482.142 619.679C490.756 622.149 495.062 623.383 498.833 622.65C502.15 622.006 505.177 620.328 507.482 617.856C510.101 615.047 511.336 610.741 513.806 602.127L520.367 579.248C522.837 570.635 524.071 566.328 523.338 562.558C522.694 559.241 521.015 556.213 518.544 553.909C515.735 551.289 511.428 550.054 502.815 547.584L479.936 541.024ZM571.256 567.209C562.643 564.739 558.336 563.505 554.565 564.238C551.248 564.882 548.221 566.561 545.917 569.032C543.297 571.841 542.062 576.148 539.592 584.761L533.032 607.64C530.562 616.253 529.327 620.56 530.06 624.331C530.705 627.647 532.383 630.675 534.854 632.979C537.663 635.599 541.97 636.834 550.583 639.304L573.462 645.864C582.075 648.334 586.382 649.569 590.153 648.836C593.47 648.191 596.497 646.513 598.801 644.042C601.421 641.233 602.656 636.926 605.126 628.313L611.687 605.434C614.156 596.82 615.391 592.514 614.658 588.743C614.013 585.426 612.335 582.399 609.864 580.094C607.055 577.475 602.748 576.24 594.135 573.77L571.256 567.209ZM662.576 593.395C653.962 590.925 649.656 589.69 645.885 590.423C642.568 591.068 639.541 592.746 637.237 595.217C634.617 598.027 633.382 602.333 630.912 610.947L624.351 633.825C621.882 642.439 620.647 646.746 621.38 650.516C622.025 653.833 623.703 656.86 626.174 659.165C628.983 661.784 633.29 663.02 641.903 665.49L664.782 672.05C673.395 674.52 677.702 675.754 681.473 675.021C684.789 674.377 687.817 672.699 690.121 670.227C692.741 667.418 693.976 663.112 696.446 654.498L703.006 631.619C705.476 623.006 706.711 618.699 705.978 614.929C705.333 611.612 703.655 608.584 701.184 606.28C698.375 603.66 694.068 602.425 685.455 599.955L662.576 593.395ZM414.802 423.518C406.188 421.049 401.882 419.814 398.111 420.547C394.794 421.192 391.767 422.87 389.462 425.341C386.843 428.15 385.608 432.457 383.138 441.07L376.577 463.949C374.107 472.562 372.873 476.869 373.606 480.64C374.25 483.956 375.929 486.984 378.4 489.288C381.209 491.908 385.516 493.143 394.129 495.613L417.008 502.173C425.621 504.643 429.928 505.878 433.699 505.145C437.015 504.5 440.043 502.822 442.347 500.351C444.967 497.542 446.202 493.235 448.672 484.622L455.232 461.743C457.702 453.129 458.937 448.823 458.204 445.052C457.559 441.735 455.881 438.708 453.41 436.403C450.601 433.784 446.294 432.549 437.681 430.079L414.802 423.518ZM506.122 449.704C497.508 447.234 493.202 445.999 489.431 446.732C486.114 447.377 483.087 449.055 480.782 451.526C478.163 454.336 476.927 458.642 474.458 467.256L467.897 490.134C465.427 498.748 464.193 503.055 464.926 506.825C465.57 510.142 467.249 513.169 469.72 515.474C472.529 518.093 476.835 519.329 485.449 521.799L508.328 528.359C516.941 530.829 521.248 532.063 525.018 531.331C528.335 530.686 531.363 529.008 533.667 526.536C536.287 523.727 537.522 519.421 539.992 510.807L546.552 487.928C549.022 479.315 550.257 475.008 549.524 471.238C548.879 467.921 547.201 464.893 544.73 462.589C541.921 459.969 537.614 458.734 529.001 456.264L506.122 449.704ZM597.442 475.889C588.828 473.42 584.521 472.185 580.751 472.918C577.434 473.563 574.407 475.241 572.102 477.712C569.483 480.521 568.247 484.828 565.777 493.441L559.217 516.32C556.747 524.933 555.513 529.24 556.246 533.011C556.89 536.328 558.568 539.355 561.04 541.659C563.849 544.279 568.155 545.514 576.769 547.984L599.648 554.544C608.261 557.014 612.568 558.249 616.338 557.516C619.655 556.871 622.683 555.193 624.987 552.722C627.607 549.913 628.842 545.606 631.312 536.993L637.872 514.114C640.342 505.501 641.577 501.194 640.844 497.423C640.199 494.106 638.521 491.079 636.05 488.775C633.24 486.155 628.934 484.92 620.32 482.45L597.442 475.889ZM688.761 502.075C680.148 499.605 675.841 498.371 672.071 499.103C668.754 499.748 665.726 501.426 663.422 503.897C660.802 506.707 659.567 511.013 657.097 519.627L650.537 542.506C648.067 551.119 646.832 555.426 647.565 559.196C648.21 562.513 649.888 565.541 652.359 567.845C655.169 570.465 659.475 571.7 668.089 574.17L690.967 580.73C699.581 583.2 703.888 584.435 707.658 583.702C710.975 583.057 714.002 581.379 716.307 578.908C718.927 576.098 720.162 571.792 722.632 563.178L729.192 540.3C731.662 531.686 732.896 527.379 732.164 523.609C731.519 520.292 729.841 517.265 727.37 514.96C724.56 512.34 720.254 511.105 711.64 508.635L688.761 502.075ZM440.987 332.198C432.374 329.729 428.067 328.494 424.297 329.227C420.98 329.872 417.952 331.55 415.648 334.021C413.028 336.83 411.793 341.137 409.323 349.75L402.763 372.629C400.293 381.242 399.058 385.549 399.791 389.32C400.436 392.637 402.114 395.664 404.585 397.968C407.395 400.588 411.701 401.823 420.315 404.293L443.193 410.854C451.807 413.323 456.114 414.558 459.884 413.825C463.201 413.18 466.228 411.502 468.533 409.031C471.152 406.222 472.388 401.915 474.858 393.302L481.418 370.423C483.888 361.81 485.122 357.503 484.389 353.732C483.745 350.415 482.067 347.388 479.595 345.084C476.786 342.464 472.48 341.229 463.866 338.759L440.987 332.198ZM532.307 358.384C523.694 355.914 519.387 354.68 515.617 355.412C512.3 356.057 509.272 357.735 506.968 360.206C504.348 363.016 503.113 367.322 500.643 375.936L494.083 398.815C491.613 407.428 490.378 411.735 491.111 415.505C491.756 418.822 493.434 421.85 495.905 424.154C498.714 426.774 503.021 428.009 511.634 430.479L534.513 437.039C543.127 439.509 547.433 440.744 551.204 440.011C554.521 439.366 557.548 437.688 559.853 435.217C562.472 432.407 563.708 428.101 566.177 419.487L572.738 396.609C575.208 387.995 576.442 383.688 575.709 379.918C575.065 376.601 573.386 373.574 570.915 371.269C568.106 368.649 563.799 367.414 555.186 364.944L532.307 358.384ZM623.627 384.57C615.014 382.1 610.707 380.865 606.936 381.598C603.62 382.243 600.592 383.921 598.288 386.392C595.668 389.201 594.433 393.508 591.963 402.121L585.403 425C582.933 433.614 581.698 437.92 582.431 441.691C583.076 445.008 584.754 448.035 587.225 450.34C590.034 452.959 594.341 454.194 602.954 456.664L625.833 463.225C634.447 465.694 638.753 466.929 642.524 466.196C645.841 465.551 648.868 463.873 651.173 461.402C653.792 458.593 655.027 454.286 657.497 445.673L664.058 422.794C666.528 414.181 667.762 409.874 667.029 406.103C666.385 402.787 664.706 399.759 662.235 397.455C659.426 394.835 655.119 393.6 646.506 391.13L623.627 384.57ZM714.947 410.755C706.334 408.285 702.027 407.051 698.256 407.784C694.939 408.428 691.912 410.106 689.608 412.578C686.988 415.387 685.753 419.693 683.283 428.307L676.723 451.186C674.253 459.799 673.018 464.106 673.751 467.876C674.396 471.193 676.074 474.221 678.545 476.525C681.354 479.145 685.661 480.38 694.274 482.85L717.153 489.41C725.766 491.88 730.073 493.115 733.844 492.382C737.161 491.737 740.188 490.059 742.492 487.588C745.112 484.778 746.347 480.472 748.817 471.858L755.378 448.98C757.847 440.366 759.082 436.06 758.349 432.289C757.704 428.972 756.026 425.945 753.555 423.64C750.746 421.021 746.439 419.785 737.826 417.316L714.947 410.755Z" fill="url(#paint1_linear_179_32)"/>
</g>
<g filter="url(#filter2_iig_179_32)">
<path d="M731.799 378.782C751.179 384.339 760.87 387.118 767.19 393.012C772.75 398.197 776.526 405.009 777.977 412.472C779.626 420.956 776.848 430.646 771.29 450.027L692.789 723.795C687.231 743.175 684.452 752.866 678.558 759.187C673.373 764.747 666.561 768.523 659.099 769.973C650.615 771.622 640.924 768.844 621.544 763.286L347.775 684.785C328.395 679.227 318.704 676.449 312.384 670.554C306.823 665.369 303.048 658.558 301.597 651.095C299.948 642.611 302.726 632.92 308.284 613.54L386.786 339.772C392.343 320.391 395.122 310.701 401.016 304.38C406.201 298.82 413.013 295.044 420.475 293.593C428.959 291.944 438.65 294.723 458.03 300.28L731.799 378.782ZM362.426 590.157C353.812 587.687 349.506 586.453 345.735 587.186C342.418 587.83 339.391 589.508 337.086 591.98C334.467 594.789 333.232 599.095 330.762 607.709L324.201 630.588C321.731 639.201 320.497 643.508 321.23 647.278C321.874 650.595 323.553 653.623 326.024 655.927C328.833 658.547 333.14 659.782 341.753 662.252L364.632 668.812C373.245 671.282 377.552 672.517 381.323 671.784C384.639 671.139 387.667 669.461 389.971 666.99C392.591 664.18 393.826 659.874 396.296 651.26L402.856 628.382C405.326 619.768 406.561 615.462 405.828 611.691C405.183 608.374 403.505 605.347 401.034 603.042C398.225 600.423 393.918 599.187 385.305 596.718L362.426 590.157ZM453.746 616.343C445.132 613.873 440.826 612.638 437.055 613.371C433.738 614.016 430.711 615.694 428.406 618.165C425.787 620.974 424.551 625.281 422.082 633.894L415.521 656.773C413.051 665.387 411.817 669.693 412.55 673.464C413.194 676.781 414.873 679.808 417.344 682.113C420.153 684.732 424.46 685.967 433.073 688.437L455.952 694.998C464.565 697.468 468.872 698.702 472.643 697.969C475.959 697.325 478.987 695.646 481.291 693.175C483.911 690.366 485.146 686.059 487.616 677.446L494.176 654.567C496.646 645.954 497.881 641.647 497.148 637.876C496.503 634.56 494.825 631.532 492.354 629.228C489.545 626.608 485.238 625.373 476.625 622.903L453.746 616.343ZM545.066 642.528C536.452 640.058 532.145 638.824 528.375 639.557C525.058 640.201 522.031 641.88 519.726 644.351C517.107 647.16 515.871 651.467 513.401 660.08L506.841 682.959C504.371 691.572 503.137 695.879 503.87 699.65C504.514 702.966 506.192 705.994 508.664 708.298C511.473 710.918 515.779 712.153 524.393 714.623L547.272 721.183C555.885 723.653 560.192 724.888 563.962 724.155C567.279 723.51 570.307 721.832 572.611 719.361C575.231 716.552 576.466 712.245 578.936 703.632L585.496 680.753C587.966 672.139 589.201 667.833 588.468 664.062C587.823 660.745 586.145 657.718 583.674 655.413C580.864 652.794 576.558 651.558 567.944 649.089L545.066 642.528ZM636.386 668.714C627.772 666.244 623.465 665.009 619.695 665.742C616.378 666.387 613.35 668.065 611.046 670.536C608.426 673.346 607.191 677.652 604.721 686.266L598.161 709.144C595.691 717.758 594.457 722.064 595.189 725.835C595.834 729.152 597.512 732.179 599.983 734.484C602.793 737.103 607.099 738.339 615.713 740.808L638.591 747.369C647.205 749.839 651.512 751.073 655.282 750.34C658.599 749.696 661.627 748.018 663.931 745.546C666.551 742.737 667.786 738.431 670.256 729.817L676.816 706.938C679.286 698.325 680.52 694.018 679.788 690.248C679.143 686.931 677.465 683.903 674.994 681.599C672.184 678.979 667.878 677.744 659.264 675.274L636.386 668.714ZM388.611 498.837C379.998 496.367 375.691 495.133 371.921 495.866C368.604 496.51 365.576 498.189 363.272 500.66C360.652 503.469 359.417 507.776 356.947 516.389L350.387 539.268C347.917 547.881 346.682 552.188 347.415 555.959C348.06 559.275 349.738 562.303 352.209 564.607C355.019 567.227 359.325 568.462 367.939 570.932L390.817 577.492C399.431 579.962 403.738 581.197 407.508 580.464C410.825 579.819 413.852 578.141 416.157 575.67C418.776 572.861 420.012 568.554 422.482 559.941L429.042 537.062C431.512 528.448 432.746 524.142 432.014 520.371C431.369 517.054 429.691 514.027 427.219 511.722C424.41 509.103 420.104 507.868 411.49 505.398L388.611 498.837ZM479.931 525.023C471.318 522.553 467.011 521.318 463.241 522.051C459.924 522.696 456.896 524.374 454.592 526.845C451.972 529.655 450.737 533.961 448.267 542.575L441.707 565.453C439.237 574.067 438.002 578.373 438.735 582.144C439.38 585.461 441.058 588.488 443.529 590.793C446.339 593.412 450.645 594.648 459.258 597.117L482.137 603.678C490.751 606.148 495.057 607.382 498.828 606.649C502.145 606.005 505.172 604.327 507.477 601.855C510.096 599.046 511.332 594.74 513.801 586.126L520.362 563.247C522.832 554.634 524.066 550.327 523.333 546.557C522.689 543.24 521.011 540.212 518.539 537.908C515.73 535.288 511.424 534.053 502.81 531.583L479.931 525.023ZM571.251 551.208C562.638 548.739 558.331 547.504 554.56 548.237C551.244 548.882 548.216 550.56 545.912 553.031C543.292 555.84 542.057 560.147 539.587 568.76L533.027 591.639C530.557 600.252 529.322 604.559 530.055 608.33C530.7 611.646 532.378 614.674 534.849 616.978C537.658 619.598 541.965 620.833 550.578 623.303L573.457 629.863C582.071 632.333 586.377 633.568 590.148 632.835C593.465 632.19 596.492 630.512 598.797 628.041C601.416 625.232 602.651 620.925 605.121 612.312L611.682 589.433C614.152 580.819 615.386 576.513 614.653 572.742C614.009 569.425 612.33 566.398 609.859 564.093C607.05 561.474 602.743 560.239 594.13 557.769L571.251 551.208ZM662.571 577.394C653.958 574.924 649.651 573.689 645.88 574.422C642.563 575.067 639.536 576.745 637.232 579.216C634.612 582.026 633.377 586.332 630.907 594.946L624.347 617.824C621.877 626.438 620.642 630.745 621.375 634.515C622.02 637.832 623.698 640.859 626.169 643.164C628.978 645.784 633.285 647.019 641.898 649.489L664.777 656.049C673.39 658.519 677.697 659.753 681.468 659.021C684.785 658.376 687.812 656.698 690.116 654.227C692.736 651.417 693.971 647.111 696.441 638.497L703.002 615.618C705.471 607.005 706.706 602.698 705.973 598.928C705.328 595.611 703.65 592.583 701.179 590.279C698.37 587.659 694.063 586.424 685.45 583.954L662.571 577.394ZM414.797 407.517C406.184 405.048 401.877 403.813 398.106 404.546C394.789 405.191 391.762 406.869 389.458 409.34C386.838 412.149 385.603 416.456 383.133 425.069L376.572 447.948C374.103 456.561 372.868 460.868 373.601 464.639C374.246 467.955 375.924 470.983 378.395 473.287C381.204 475.907 385.511 477.142 394.124 479.612L417.003 486.172C425.616 488.642 429.923 489.877 433.694 489.144C437.011 488.499 440.038 486.821 442.342 484.35C444.962 481.541 446.197 477.234 448.667 468.621L455.227 445.742C457.697 437.128 458.932 432.822 458.199 429.051C457.554 425.734 455.876 422.707 453.405 420.403C450.596 417.783 446.289 416.548 437.676 414.078L414.797 407.517ZM506.117 433.703C497.503 431.233 493.197 429.998 489.426 430.731C486.109 431.376 483.082 433.054 480.777 435.525C478.158 438.335 476.923 442.641 474.453 451.255L467.892 474.133C465.422 482.747 464.188 487.054 464.921 490.824C465.565 494.141 467.244 497.168 469.715 499.473C472.524 502.093 476.831 503.328 485.444 505.798L508.323 512.358C516.936 514.828 521.243 516.062 525.014 515.33C528.33 514.685 531.358 513.007 533.662 510.536C536.282 507.726 537.517 503.42 539.987 494.806L546.547 471.927C549.017 463.314 550.252 459.007 549.519 455.237C548.874 451.92 547.196 448.892 544.725 446.588C541.916 443.968 537.609 442.733 528.996 440.263L506.117 433.703ZM597.437 459.888C588.823 457.419 584.517 456.184 580.746 456.917C577.429 457.562 574.402 459.24 572.097 461.711C569.478 464.52 568.242 468.827 565.773 477.44L559.212 500.319C556.742 508.932 555.508 513.239 556.241 517.01C556.885 520.327 558.564 523.354 561.035 525.658C563.844 528.278 568.151 529.513 576.764 531.983L599.643 538.544C608.256 541.013 612.563 542.248 616.333 541.515C619.65 540.87 622.678 539.192 624.982 536.721C627.602 533.912 628.837 529.605 631.307 520.992L637.867 498.113C640.337 489.5 641.572 485.193 640.839 481.422C640.194 478.105 638.516 475.078 636.045 472.774C633.235 470.154 628.929 468.919 620.316 466.449L597.437 459.888ZM688.757 486.074C680.143 483.604 675.836 482.37 672.066 483.102C668.749 483.747 665.722 485.425 663.417 487.896C660.798 490.706 659.562 495.012 657.092 503.626L650.532 526.505C648.062 535.118 646.828 539.425 647.561 543.195C648.205 546.512 649.883 549.54 652.355 551.844C655.164 554.464 659.47 555.699 668.084 558.169L690.963 564.729C699.576 567.199 703.883 568.434 707.653 567.701C710.97 567.056 713.998 565.378 716.302 562.907C718.922 560.097 720.157 555.791 722.627 547.177L729.187 524.299C731.657 515.685 732.892 511.378 732.159 507.608C731.514 504.291 729.836 501.264 727.365 498.959C724.555 496.339 720.249 495.104 711.635 492.634L688.757 486.074ZM440.983 316.198C432.369 313.728 428.062 312.493 424.292 313.226C420.975 313.871 417.947 315.549 415.643 318.02C413.023 320.829 411.788 325.136 409.318 333.749L402.758 356.628C400.288 365.241 399.054 369.548 399.786 373.319C400.431 376.636 402.109 379.663 404.58 381.967C407.39 384.587 411.696 385.822 420.31 388.292L443.189 394.853C451.802 397.322 456.109 398.557 459.879 397.824C463.196 397.179 466.224 395.501 468.528 393.03C471.148 390.221 472.383 385.914 474.853 377.301L481.413 354.422C483.883 345.809 485.118 341.502 484.385 337.731C483.74 334.414 482.062 331.387 479.591 329.083C476.781 326.463 472.475 325.228 463.861 322.758L440.983 316.198ZM532.302 342.383C523.689 339.913 519.382 338.679 515.612 339.411C512.295 340.056 509.267 341.734 506.963 344.206C504.343 347.015 503.108 351.321 500.638 359.935L494.078 382.814C491.608 391.427 490.373 395.734 491.106 399.504C491.751 402.821 493.429 405.849 495.9 408.153C498.71 410.773 503.016 412.008 511.63 414.478L534.508 421.038C543.122 423.508 547.429 424.743 551.199 424.01C554.516 423.365 557.543 421.687 559.848 419.216C562.467 416.406 563.703 412.1 566.173 403.486L572.733 380.608C575.203 371.994 576.437 367.687 575.704 363.917C575.06 360.6 573.382 357.573 570.91 355.268C568.101 352.649 563.795 351.413 555.181 348.943L532.302 342.383ZM623.622 368.569C615.009 366.099 610.702 364.864 606.932 365.597C603.615 366.242 600.587 367.92 598.283 370.391C595.663 373.2 594.428 377.507 591.958 386.12L585.398 408.999C582.928 417.613 581.693 421.919 582.426 425.69C583.071 429.007 584.749 432.034 587.22 434.339C590.029 436.958 594.336 438.193 602.949 440.663L625.828 447.224C634.442 449.694 638.748 450.928 642.519 450.195C645.836 449.55 648.863 447.872 651.168 445.401C653.787 442.592 655.023 438.285 657.492 429.672L664.053 406.793C666.523 398.18 667.757 393.873 667.024 390.102C666.38 386.786 664.701 383.758 662.23 381.454C659.421 378.834 655.114 377.599 646.501 375.129L623.622 368.569ZM714.942 394.754C706.329 392.284 702.022 391.05 698.251 391.783C694.935 392.427 691.907 394.105 689.603 396.577C686.983 399.386 685.748 403.692 683.278 412.306L676.718 435.185C674.248 443.798 673.013 448.105 673.746 451.875C674.391 455.192 676.069 458.22 678.54 460.524C681.349 463.144 685.656 464.379 694.269 466.849L717.148 473.409C725.762 475.879 730.068 477.114 733.839 476.381C737.156 475.736 740.183 474.058 742.488 471.587C745.107 468.777 746.342 464.471 748.812 455.857L755.373 432.979C757.843 424.365 759.077 420.059 758.344 416.288C757.7 412.971 756.021 409.944 753.55 407.639C750.741 405.02 746.434 403.784 737.821 401.315L714.942 394.754Z" fill="url(#paint2_linear_179_32)"/>
</g>
</g>
<defs>
<filter id="filter0_d_179_32" x="181.709" y="181.708" width="716.586" height="716.586" filterUnits="userSpaceOnUse" color-interpolation-filters="sRGB">
<feFlood flood-opacity="0" result="BackgroundImageFix"/>
<feColorMatrix in="SourceAlpha" type="matrix" values="0 0 0 0 0 0 0 0 0 0 0 0 0 0 0 0 0 0 127 0" result="hardAlpha"/>
<feMorphology radius="32" operator="dilate" in="SourceAlpha" result="effect1_dropShadow_179_32"/>
<feOffset/>
<feGaussianBlur stdDeviation="50"/>
<feComposite in2="hardAlpha" operator="out"/>
<feColorMatrix type="matrix" values="0 0 0 0 1 0 0 0 0 0.627451 0 0 0 0 0 0 0 0 0.5 0"/>
<feBlend mode="normal" in2="BackgroundImageFix" result="effect1_dropShadow_179_32"/>
<feBlend mode="normal" in="SourceGraphic" in2="effect1_dropShadow_179_32" result="shape"/>
</filter>
<filter id="filter1_ig_179_32" x="297.13" y="305.122" width="485.324" height="485.324" filterUnits="userSpaceOnUse" color-interpolation-filters="sRGB">
<feFlood flood-opacity="0" result="BackgroundImageFix"/>
<feBlend mode="normal" in="SourceGraphic" in2="BackgroundImageFix" result="shape"/>
<feColorMatrix in="SourceAlpha" type="matrix" values="0 0 0 0 0 0 0 0 0 0 0 0 0 0 0 0 0 0 127 0" result="hardAlpha"/>
<feOffset dy="-2"/>
<feGaussianBlur stdDeviation="4"/>
<feComposite in2="hardAlpha" operator="arithmetic" k2="-1" k3="1"/>
<feColorMatrix type="matrix" values="0 0 0 0 0 0 0 0 0 0 0 0 0 0 0 0 0 0 1 0"/>
<feBlend mode="soft-light" in2="shape" result="effect1_innerShadow_179_32"/>
<feTurbulence type="fractalNoise" baseFrequency="0.015625 0.015625" numOctaves="3" seed="6410" />
<feDisplacementMap in="effect1_innerShadow_179_32" scale="8" xChannelSelector="R" yChannelSelector="G" result="displacedImage" width="100%" height="100%" />
<feMerge result="effect2_texture_179_32">
<feMergeNode in="displacedImage"/>
</feMerge>
</filter>
<filter id="filter2_iig_179_32" x="297.125" y="289.121" width="485.324" height="485.324" filterUnits="userSpaceOnUse" color-interpolation-filters="sRGB">
<feFlood flood-opacity="0" result="BackgroundImageFix"/>
<feBlend mode="normal" in="SourceGraphic" in2="BackgroundImageFix" result="shape"/>
<feColorMatrix in="SourceAlpha" type="matrix" values="0 0 0 0 0 0 0 0 0 0 0 0 0 0 0 0 0 0 127 0" result="hardAlpha"/>
<feOffset dy="-2"/>
<feGaussianBlur stdDeviation="0.5"/>
<feComposite in2="hardAlpha" operator="arithmetic" k2="-1" k3="1"/>
<feColorMatrix type="matrix" values="0 0 0 0 0 0 0 0 0 0 0 0 0 0 0 0 0 0 1 0"/>
<feBlend mode="soft-light" in2="shape" result="effect1_innerShadow_179_32"/>
<feColorMatrix in="SourceAlpha" type="matrix" values="0 0 0 0 0 0 0 0 0 0 0 0 0 0 0 0 0 0 127 0" result="hardAlpha"/>
<feOffset dy="2"/>
<feGaussianBlur stdDeviation="0.5"/>
<feComposite in2="hardAlpha" operator="arithmetic" k2="-1" k3="1"/>
<feColorMatrix type="matrix" values="0 0 0 0 1 0 0 0 0 1 0 0 0 0 1 0 0 0 1 0"/>
<feBlend mode="soft-light" in2="effect1_innerShadow_179_32" result="effect2_innerShadow_179_32"/>
<feTurbulence type="fractalNoise" baseFrequency="0.015625 0.015625" numOctaves="3" seed="2273" />
<feDisplacementMap in="effect2_innerShadow_179_32" scale="8" xChannelSelector="R" yChannelSelector="G" result="displacedImage" width="100%" height="100%" />
<feMerge result="effect3_texture_179_32">
<feMergeNode in="displacedImage"/>
</feMerge>
</filter>
<linearGradient id="paint0_linear_179_32" x1="599.733" y1="304.99" x2="599.733" y2="684.99" gradientUnits="userSpaceOnUse">
<stop stop-color="#FFC107"/>
<stop offset="1" stop-color="#FFB300"/>
</linearGradient>
<linearGradient id="paint1_linear_179_32" x1="594.919" y1="355.532" x2="484.664" y2="740.036" gradientUnits="userSpaceOnUse">
<stop stop-color="#FFA000"/>
<stop offset="1" stop-color="#FF8F00"/>
</linearGradient>
<linearGradient id="paint2_linear_179_32" x1="594.914" y1="339.531" x2="484.66" y2="724.036" gradientUnits="userSpaceOnUse">
<stop stop-color="#FFCA28"/>
<stop offset="1" stop-color="#FFC107"/>
</linearGradient>
</defs>
</svg>
